<svg width="31" height="30" viewBox="0 0 31 30" fill="none" xmlns="http://www.w3.org/2000/svg">
<g clip-path="url(#clip0_135_134)">
<path d="M23.1668 28.6668H7.16675C3.49175 28.6668 0.5 25.6751 0.5 22V16H29.8333V22C29.8333 25.675 26.8416 28.6668 23.1668 28.6668ZM1.83325 17.3333V22C1.83325 24.9416 4.22513 27.3333 7.16675 27.3333H23.1668C26.1084 27.3333 28.5 24.9416 28.5 22V17.3333H1.83325Z" fill="#2B2E4A"/>
<path d="M8.5 28H9.83325V30H8.5V28ZM20.5 28H21.8333V30H20.5V28ZM5.83325 16.6667H4.5V4.66675C4.5 2.09156 6.59156 0 9.16675 0C11.7418 0 13.8333 2.09156 13.8333 4.66675V5.33325H12.5V4.66675C12.5 2.82494 11.0083 1.33325 9.16675 1.33325C7.32494 1.33325 5.83325 2.82494 5.83325 4.66675V16.6667Z" fill="#2B2E4A"/>
<path d="M17.8333 10.6667H8.5V9.33325C8.5 6.75825 10.5916 4.66675 13.1667 4.66675C15.7417 4.66675 17.8333 6.75831 17.8333 9.33325V10.6667ZM9.83325 9.33325H16.5C16.5 7.49169 15.0083 6 13.1667 6C11.3249 6 9.83325 7.49169 9.83325 9.33325Z" fill="#2B2E4A"/>
</g>
<defs>
<clipPath id="clip0_135_134">
<rect width="30" height="30" fill="white" transform="translate(0.5)"/>
</clipPath>
</defs>
</svg>
