<svg width="29" height="25" viewBox="0 0 29 25" fill="none" xmlns="http://www.w3.org/2000/svg">
<path d="M25.1816 3.57043C24.5645 2.95297 23.8317 2.46316 23.0252 2.12899C22.2187 1.79481 21.3542 1.6228 20.4812 1.6228C19.6082 1.6228 18.7438 1.79481 17.9373 2.12899C17.1307 2.46316 16.398 2.95297 15.7808 3.57043L14.5 4.85126L13.2191 3.57043C11.9725 2.3238 10.2817 1.62345 8.51873 1.62345C6.75573 1.62345 5.06494 2.3238 3.81831 3.57043C2.57169 4.81705 1.87134 6.50784 1.87134 8.27084C1.87134 10.0338 2.57169 11.7246 3.81831 12.9713L5.09915 14.2521L14.5 23.6529L23.9008 14.2521L25.1816 12.9713C25.7991 12.3541 26.2889 11.6213 26.6231 10.8148C26.9573 10.0083 27.1293 9.14385 27.1293 8.27084C27.1293 7.39784 26.9573 6.53338 26.6231 5.72687C26.2889 4.92036 25.7991 4.18759 25.1816 3.57043Z" stroke="black" stroke-width="2" stroke-linecap="round" stroke-linejoin="round"/>
</svg>
