<svg width="49" height="48" viewBox="0 0 49 48" fill="none" xmlns="http://www.w3.org/2000/svg">
<path d="M47.4249 20.8777C47.4234 20.8766 47.4223 20.8751 47.4212 20.874L27.841 1.29469C27.0063 0.459563 25.8967 0 24.7165 0C23.5362 0 22.4266 0.459563 21.5916 1.29459L2.02159 20.8641C2.01503 20.8706 2.00809 20.8776 2.0019 20.8842C0.287967 22.6079 0.290967 25.4047 2.01034 27.124C2.79578 27.9099 3.83284 28.3648 4.94219 28.4127C4.98756 28.4171 5.03303 28.4193 5.07878 28.4193H5.85878V42.8283C5.85878 45.68 8.17909 47.9999 11.0308 47.9999H18.6912C19.4679 47.9999 20.0974 47.37 20.0974 46.5937V35.2969C20.0974 33.9957 21.1562 32.9374 22.4573 32.9374H26.9756C28.2768 32.9374 29.3351 33.9958 29.3351 35.2969V46.5938C29.3351 47.3701 29.9646 48 30.7413 48H38.4017C41.2538 48 43.5737 45.6801 43.5737 42.8284V28.4194H44.2974C45.4773 28.4194 46.587 27.9597 47.4223 27.1244C49.1435 25.4025 49.1442 22.6006 47.4248 20.8776L47.4249 20.8777ZM45.4334 25.136C45.2846 25.2857 45.1075 25.4044 44.9126 25.4852C44.7176 25.5661 44.5085 25.6075 44.2974 25.607H42.1674C41.3907 25.607 40.7612 26.2364 40.7612 27.0132V42.8284C40.7612 44.1292 39.7028 45.1875 38.4016 45.1875H32.1476V35.2969C32.1476 32.4452 29.8276 30.1249 26.9755 30.1249H22.4574C19.6053 30.1249 17.285 32.4452 17.285 35.2969V45.1875H11.031C9.73009 45.1875 8.67137 44.1291 8.67137 42.8284V27.0131C8.67137 26.2363 8.04184 25.6069 7.26512 25.6069H5.17178C5.14984 25.6053 5.12786 25.6043 5.10587 25.6039C4.6869 25.5966 4.294 25.4303 3.99962 25.1355C3.37337 24.5093 3.37337 23.4902 3.99962 22.8636C3.99991 22.8636 3.99991 22.8632 4.00028 22.8628L4.0014 22.8617L23.5808 3.28312C23.7295 3.13341 23.9065 3.01471 24.1015 2.93393C24.2964 2.85314 24.5055 2.81186 24.7165 2.8125C25.1453 2.8125 25.5485 2.97947 25.8521 3.28312L45.4271 22.8577L45.4363 22.8666C46.0592 23.4939 46.0581 24.5109 45.4334 25.136Z" fill="#2B3D4A"/>
</svg>
