<svg width="24" height="24" viewBox="0 0 24 24" fill="none" xmlns="http://www.w3.org/2000/svg">
<path d="M23.4 10.4388C23.3993 10.4383 23.3987 10.4376 23.3981 10.437L13.6081 0.647344C13.1907 0.229781 12.6359 0 12.0458 0C11.4557 0 10.9008 0.229781 10.4834 0.647297L0.698357 10.432C0.695076 10.4353 0.691607 10.4388 0.688514 10.4421C-0.168455 11.304 -0.166955 12.7023 0.692732 13.562C1.08545 13.955 1.60398 14.1824 2.15865 14.2064C2.18134 14.2086 2.20408 14.2096 2.22695 14.2096H2.61695V21.4141C2.61695 22.84 3.77711 24 5.20295 24H9.03315C9.42151 24 9.73628 23.685 9.73628 23.2968V17.6484C9.73628 16.9979 10.2656 16.4687 10.9162 16.4687H13.1754C13.826 16.4687 14.3551 16.9979 14.3551 17.6484V23.2969C14.3551 23.685 14.6699 24 15.0582 24H18.8884C20.3145 24 21.4744 22.84 21.4744 21.4142V14.2097H21.8363C22.4262 14.2097 22.981 13.9799 23.3987 13.5622C24.2593 12.7013 24.2597 11.3003 23.4 10.4388L23.4 10.4388ZM22.4042 12.568C22.3298 12.6428 22.2413 12.7022 22.1438 12.7426C22.0463 12.783 21.9418 12.8037 21.8363 12.8035H20.7713C20.3829 12.8035 20.0681 13.1182 20.0681 13.5066V21.4142C20.0681 22.0646 19.539 22.5938 18.8884 22.5938H15.7614V17.6484C15.7614 16.2226 14.6013 15.0624 13.1753 15.0624H10.9163C9.49023 15.0624 8.33008 16.2226 8.33008 17.6484V22.5938H5.20305C4.55261 22.5938 4.02325 22.0645 4.02325 21.4142V13.5066C4.02325 13.1182 3.70848 12.8034 3.32012 12.8034H2.27345C2.26248 12.8027 2.25149 12.8022 2.2405 12.8019C2.03101 12.7983 1.83456 12.7152 1.68737 12.5677C1.37425 12.2546 1.37425 11.7451 1.68737 11.4318C1.68751 11.4318 1.68751 11.4316 1.6877 11.4314L1.68826 11.4308L11.478 1.64156C11.5523 1.5667 11.6408 1.50736 11.7383 1.46696C11.8358 1.42657 11.9403 1.40593 12.0458 1.40625C12.2602 1.40625 12.4618 1.48973 12.6136 1.64156L22.4011 11.4289L22.4057 11.4333C22.7172 11.747 22.7166 12.2555 22.4042 12.568Z" fill="#2B2E4A"/>
</svg>
