<svg width="20" height="20" viewBox="0 0 20 20" fill="none" xmlns="http://www.w3.org/2000/svg">
<path d="M7.5 8.33333C5.2025 8.33333 3.33333 6.46417 3.33333 4.16667C3.33333 1.86917 5.2025 0 7.5 0C9.7975 0 11.6667 1.86917 11.6667 4.16667C11.6667 6.46417 9.7975 8.33333 7.5 8.33333ZM3.95833 10C1.775 10 0 11.775 0 13.9583V16.875C0 17.2167 0.283333 17.5 0.625 17.5H8.33333V14.7917C8.33333 13.225 9.5 11.9333 11.0083 11.7083C11.225 11.075 11.6333 10.5417 12.1583 10.1583C11.325 9.92 11.28 10 3.95833 10ZM18.5417 13.3333H17.5V12.7083C17.5 11.9042 16.8458 11.25 16.0417 11.25H13.9583C13.1542 11.25 12.5 11.9042 12.5 12.7083V13.3333H11.4583C11.2634 13.3334 11.0704 13.3727 10.891 13.449C10.7116 13.5254 10.5494 13.6371 10.4142 13.7775L15 16.17L19.5858 13.7775C19.4506 13.6371 19.2884 13.5254 19.109 13.449C18.9296 13.3727 18.7366 13.3334 18.5417 13.3333ZM13.75 13.3333V12.7083C13.75 12.6531 13.7719 12.6001 13.811 12.561C13.8501 12.5219 13.9031 12.5 13.9583 12.5H16.0417C16.0969 12.5 16.1499 12.5219 16.189 12.561C16.2281 12.6001 16.25 12.6531 16.25 12.7083V13.3333H13.75Z" fill="#2B2E4A"/>
<path d="M15.2892 17.4292C15.2 17.4756 15.101 17.4999 15.0004 17.4999C14.8999 17.4999 14.8008 17.4756 14.7117 17.4292L10 14.9708V18.5417C10 19.3458 10.6542 20 11.4583 20H18.5417C19.3458 20 20 19.3458 20 18.5417V14.9708L15.2892 17.4292Z" fill="#2B2E4A"/>
</svg>
