<svg width="27" height="28" viewBox="0 0 27 28" fill="none" xmlns="http://www.w3.org/2000/svg">
<path d="M23.625 11.6666C23.625 19.8333 13.5 26.8333 13.5 26.8333C13.5 26.8333 3.375 19.8333 3.375 11.6666C3.375 8.88185 4.44174 6.21114 6.34054 4.24201C8.23935 2.27287 10.8147 1.16663 13.5 1.16663C16.1853 1.16663 18.7606 2.27287 20.6595 4.24201C22.5583 6.21114 23.625 8.88185 23.625 11.6666Z" stroke="#2B2E4A" stroke-width="1.5" stroke-linecap="round" stroke-linejoin="round"/>
<path d="M13.5 15.1666C15.364 15.1666 16.875 13.5996 16.875 11.6666C16.875 9.73363 15.364 8.16663 13.5 8.16663C11.636 8.16663 10.125 9.73363 10.125 11.6666C10.125 13.5996 11.636 15.1666 13.5 15.1666Z" stroke="#2B2E4A" stroke-width="1.5" stroke-linecap="round" stroke-linejoin="round"/>
</svg>
