<svg width="183" height="85" viewBox="0 0 183 85" fill="none" xmlns="http://www.w3.org/2000/svg">
<path d="M37.82 18.7L45.5154 23.3423C48.3307 25.0423 49.1754 27.4615 49.1754 29.75C49.1754 35.4384 40.823 38.1192 38.0077 42.7615C37.163 44.0038 36.6 45.5731 36.7877 47.0115C36.7877 47.6 37.3507 49.8231 38.383 49.9538C45.703 51.0654 51.6154 47.5346 49.1754 41.9115C48.6123 40.3423 48.143 39.7538 47.1107 38.7731H47.4861L55.1815 43.4808C56.7769 44.5923 57.6215 45.6384 57.6215 47.1423C58.1846 51.7192 52.8354 55.1192 46.923 55.1192C44.2954 55.1192 42.2307 54.5308 40.6354 53.55L31.9077 48.1884C29.28 46.6192 28.623 44.7884 28.623 42.3692C28.623 37.0077 34.9107 34 37.5384 29.3577C38.7584 27.5269 39.1338 25.6961 39.1338 23.6692C39.1338 22.1 39.1338 20.0077 37.5384 18.5692L37.82 18.7Z" fill="#6DB3EE"/>
<path d="M56.7769 59.7616C56.7769 59.7616 65.3169 64.8616 65.9738 65.3192L65.5984 65.45C63.1584 64.0116 60.0615 63.2923 56.683 63.1616C53.3984 63.0308 50.3953 63.75 47.2984 64.4692C45.8907 64.7308 44.6707 65.1885 43.263 65.5808C41.1984 66.1692 39.0399 66.5616 36.9753 66.3C33.6907 66.0385 30.6876 64.3385 28.0599 62.7692L20.5522 58.2577L20.9276 58.1269C25.4322 59.8269 29.4676 60.6769 34.723 60.0885C36.7876 59.9577 44.483 57.4077 46.7353 57.2769C48.3307 57.1462 49.5507 57.1462 51.0522 57.4077C53.6799 57.9308 54.8999 58.65 56.7769 59.7616Z" fill="white"/>
<path d="M161.04 46.6193C159.632 46.4885 158.975 45.9 157.192 44.2L148.84 35.8308L155.315 29.6193C155.878 28.9 157.568 28.6385 158.788 28.5077C159.632 28.377 159.82 27.7885 159.82 27.527H150.623C150.623 27.6577 150.623 28.2462 151.655 28.5077C152.688 28.7693 153.251 29.3577 152.312 30.3385L147.432 34.85L143.397 30.4693C141.989 29.0308 142.74 28.6385 144.054 28.5077C144.898 28.377 145.086 27.7885 145.086 27.527H132.886C132.886 27.6577 132.886 28.2462 133.918 28.5077C135.138 28.6385 136.171 29.227 137.203 30.2077L144.148 37.4654L137.391 43.8077C136.171 45.1154 135.608 45.6385 134.763 46.0962C133.918 46.5539 133.168 46.227 132.698 46.0962C131.854 45.7039 131.291 44.9846 130.821 44.1346C129.226 41.4539 123.877 31.9731 121.249 27.1346H118.434C114.774 33.5423 109.237 42.827 107.829 44.9846C106.985 46.0962 105.577 46.6846 104.357 46.6846C104.357 46.6846 101.072 47.077 100.697 45.377C100.697 45.1154 100.697 44.6577 100.697 44.0693V31.1885C100.697 29.4885 101.541 28.6385 103.794 28.377C104.826 28.2462 104.826 27.3962 104.826 27.3962H96.943L85.5876 42.2385L74.983 27.3308H66.443C66.443 27.3308 66.443 28.1808 67.2876 28.1808C68.883 28.3116 70.3845 28.7693 70.5722 30.7308V43.2193C70.5722 43.9385 70.3845 44.6577 70.3845 45.05C70.1968 45.7693 69.5399 46.1616 68.1322 46.2923C66.9122 46.4231 66.9122 47.1423 66.9122 47.2731H76.2968V47.1423C76.2968 46.8808 76.1091 46.4231 75.0768 46.2923C73.6691 46.1616 73.0122 45.7039 72.8245 45.05C72.6368 44.4616 72.6368 43.9385 72.6368 43.2193V32.5616L82.9599 47.4693H83.9922L94.5968 33.15H94.7845V44.0693C94.7845 44.7885 94.7845 45.3116 94.5968 45.7693C94.4091 46.227 93.5645 46.3577 92.5322 46.4885C91.4999 46.75 91.4999 47.3385 91.4999 47.4693H100.228H101.26H104.075H104.451H112.615C112.615 47.4693 112.615 46.75 111.395 46.4885C110.363 46.2269 109.988 45.5077 110.551 44.527L112.428 41.127H123.22L125.097 44.527C125.66 45.5077 125.472 46.2269 124.44 46.4885C123.22 46.75 123.22 47.3385 123.22 47.4693H132.135H132.323H132.698H134.294H134.481H134.857H140.112C140.112 47.4693 140.3 46.75 138.892 46.3577C138.048 46.227 138.048 45.377 139.455 44.0693L145.18 38.577L151.092 44.3962C152.5 45.9654 151.937 46.3577 150.905 46.5539C149.872 46.8154 149.872 47.4039 149.872 47.5346H161.885C161.885 47.4693 162.072 46.8808 161.04 46.6193ZM113.085 39.8193L117.777 31.45L122 39.8193H113.085Z" fill="white"/>
<path d="M66.9122 53.8115H73.3876V55.1192H68.9768V56.95H72.543V58.1923H68.9768V59.7615H73.3876V61.2H66.9122V53.8115Z" fill="white"/>
<path d="M88.4969 55.25C88.4969 55.25 86.2446 55.1193 85.4 55.1193C84.3677 55.1193 83.8046 55.3808 83.8046 55.8385C83.8046 56.2962 84.18 56.5577 85.8692 56.95C88.1215 57.5385 88.6846 57.8 88.6846 59.1077C88.6846 60.6769 87.6523 61.3962 85.0246 61.3962C83.6169 61.3962 81.74 61.1346 81.74 61.1346L81.9277 59.8269C81.9277 59.8269 83.9923 59.9577 85.0246 59.9577C86.0569 59.9577 86.9015 59.8269 86.9015 59.1077C86.9015 58.7154 86.2446 58.5192 84.8369 58.1269C82.5846 57.5385 81.74 57.0154 81.74 55.8385C81.74 54.4 82.96 53.6808 85.4 53.6808C86.8077 53.6808 88.6846 53.9423 88.6846 53.9423L88.4969 55.25Z" fill="white"/>
<path d="M95.723 53.8115H102.855V55.25H100.415V61.2H98.4446V55.25H95.723V53.8115Z" fill="white"/>
<path d="M112.428 53.8115H116.275L118.528 61.2H116.463L116.088 59.9577H112.615L112.24 61.2H110.175L112.428 53.8115ZM113.085 58.5192H115.712L114.68 55.1192H114.023L113.085 58.5192Z" fill="white"/>
<path d="M125.848 53.8115H132.98V55.25H130.352V61.2H128.288V55.25H125.848V53.8115Z" fill="white"/>
<path d="M140.957 53.8115H147.432V55.1192H142.928V56.95H146.588V58.1923H142.928V59.7615H147.432V61.2H140.957V53.8115Z" fill="white"/>
<path d="M162.26 55.25C162.26 55.25 160.008 55.1193 159.163 55.1193C158.131 55.1193 157.568 55.3808 157.568 55.8385C157.568 56.2962 157.943 56.5577 159.632 56.95C161.885 57.5385 162.448 57.8 162.448 59.1077C162.448 60.6769 161.415 61.3962 158.788 61.3962C157.38 61.3962 155.503 61.1346 155.503 61.1346L155.691 59.8269C155.691 59.8269 157.755 59.9577 158.788 59.9577C159.82 59.9577 160.665 59.8269 160.665 59.1077C160.665 58.7154 160.008 58.5192 158.6 58.1269C156.348 57.5385 155.503 57.0154 155.503 55.8385C155.503 54.4 156.723 53.6808 159.163 53.6808C160.571 53.6808 162.448 53.9423 162.448 53.9423L162.26 55.25Z" fill="white"/>
</svg>
