<svg width="20" height="20" viewBox="0 0 20 20" fill="none" xmlns="http://www.w3.org/2000/svg">
<path d="M17.5 8.33331C17.5 14.1666 10 19.1666 10 19.1666C10 19.1666 2.5 14.1666 2.5 8.33331C2.5 6.34419 3.29018 4.43654 4.6967 3.03001C6.10322 1.62349 8.01088 0.833313 10 0.833313C11.9891 0.833313 13.8968 1.62349 15.3033 3.03001C16.7098 4.43654 17.5 6.34419 17.5 8.33331Z" fill="#6DB3EE" stroke="#6DB3EE" stroke-width="1.5" stroke-linecap="round" stroke-linejoin="round"/>
<path d="M10 9.28574C10.6137 9.28574 11.1111 8.80605 11.1111 8.21431C11.1111 7.62258 10.6137 7.14288 10 7.14288C9.38638 7.14288 8.88892 7.62258 8.88892 8.21431C8.88892 8.80605 9.38638 9.28574 10 9.28574Z" fill="white" stroke="white" stroke-width="1.5" stroke-linecap="round" stroke-linejoin="round"/>
</svg>
