<svg width="49" height="40" viewBox="0 0 49 40" fill="none" xmlns="http://www.w3.org/2000/svg">
<path d="M41.0938 21.1392H36.3952C35.7557 21.1392 35.1366 21.2266 34.5474 21.3873C33.3851 19.1024 31.0121 17.5325 28.2777 17.5325H19.9723C17.2379 17.5325 14.8649 19.1024 13.7026 21.3873C13.1005 21.2227 12.479 21.1393 11.8548 21.1392H7.15625C3.27922 21.1392 0.125 24.2934 0.125 28.1705V35.6815C0.125 38.0078 2.01753 39.9003 4.34375 39.9003H43.9062C46.2325 39.9003 48.125 38.0078 48.125 35.6815V28.1705C48.125 24.2934 44.9708 21.1392 41.0938 21.1392ZM12.9411 24.5639V37.0879H4.34375C3.56834 37.0879 2.9375 36.457 2.9375 35.6816V28.1706C2.9375 25.8443 4.83003 23.9518 7.15625 23.9518H11.8548C12.2366 23.9518 12.6062 24.0037 12.9582 24.0992C12.9474 24.2539 12.9417 24.4089 12.9411 24.5639ZM32.4964 37.0879H15.7536V24.5638C15.7536 22.2376 17.6461 20.3451 19.9723 20.3451H28.2777C30.6039 20.3451 32.4964 22.2376 32.4964 24.5638V37.0879ZM45.3125 35.6816C45.3125 36.457 44.6817 37.0879 43.9062 37.0879H35.3089V24.5638C35.3083 24.4088 35.3026 24.2538 35.2918 24.0991C35.6515 24.0013 36.0225 23.9518 36.3952 23.9517H41.0938C43.42 23.9517 45.3125 25.8443 45.3125 28.1705V35.6816Z" fill="#2B3D4A"/>
<path d="M9.50563 7.85976C6.06041 7.85976 3.25757 10.6626 3.25757 14.1078C3.25747 17.553 6.06041 20.3559 9.50563 20.3559C12.9508 20.3559 15.7537 17.553 15.7537 14.1078C15.7537 10.6626 12.9508 7.85976 9.50563 7.85976ZM9.50554 17.5434C7.61113 17.5434 6.06997 16.0022 6.06997 14.1078C6.06997 12.2134 7.61113 10.6723 9.50554 10.6723C11.3999 10.6723 12.9411 12.2134 12.9411 14.1078C12.9411 16.0022 11.3999 17.5434 9.50554 17.5434ZM24.125 0.0996094C19.5223 0.0996094 15.7777 3.84417 15.7777 8.44692C15.7777 13.0497 19.5223 16.7942 24.125 16.7942C28.7278 16.7942 32.4723 13.0497 32.4723 8.44692C32.4723 3.84426 28.7278 0.0996094 24.125 0.0996094ZM24.125 13.9817C21.0731 13.9817 18.5902 11.4989 18.5902 8.44692C18.5902 5.39508 21.0731 2.91211 24.125 2.91211C27.1769 2.91211 29.6598 5.39498 29.6598 8.44692C29.6598 11.4989 27.1769 13.9817 24.125 13.9817ZM38.7444 7.85976C35.2993 7.85976 32.4963 10.6626 32.4963 14.1078C32.4964 17.553 35.2993 20.3559 38.7444 20.3559C42.1896 20.3559 44.9924 17.553 44.9924 14.1078C44.9924 10.6626 42.1896 7.85976 38.7444 7.85976ZM38.7444 17.5434C36.8501 17.5434 35.3088 16.0022 35.3088 14.1078C35.3089 12.2134 36.8501 10.6723 38.7444 10.6723C40.6388 10.6723 42.1799 12.2134 42.1799 14.1078C42.1799 16.0022 40.6388 17.5434 38.7444 17.5434Z" fill="#2B3D4A"/>
</svg>
