<svg width="27" height="24" viewBox="0 0 27 24" fill="none" xmlns="http://www.w3.org/2000/svg">
<g clip-path="url(#clip0_34_663)">
<path d="M15.5181 5.11666C16.5602 5.31958 17.5179 5.82826 18.2687 6.57759C19.0195 7.32691 19.5291 8.2828 19.7324 9.32289M15.5181 0.857178C17.6832 1.09724 19.7021 2.06493 21.2434 3.60135C22.7847 5.13778 23.7568 7.15163 24.0001 9.31224M22.9332 17.8099V21.0045C22.9344 21.3011 22.8735 21.5946 22.7545 21.8664C22.6354 22.1381 22.4608 22.382 22.2419 22.5825C22.0229 22.783 21.7644 22.9356 21.483 23.0306C21.2015 23.1257 20.9032 23.1609 20.6073 23.1342C17.3242 22.7782 14.1706 21.6585 11.3999 19.8651C8.82204 18.2302 6.63649 16.0488 4.99843 13.4759C3.19533 10.6979 2.07322 7.53497 1.72302 4.24346C1.69635 3.94899 1.73142 3.65221 1.82597 3.372C1.92053 3.09179 2.0725 2.83431 2.27222 2.61594C2.47194 2.39757 2.71503 2.2231 2.98601 2.10363C3.25699 1.98417 3.54993 1.92233 3.84616 1.92205H7.04689C7.56467 1.91696 8.06663 2.09996 8.45922 2.43695C8.85181 2.77393 9.10824 3.2419 9.18071 3.75362C9.3158 4.77597 9.56634 5.77978 9.92754 6.74591C10.0711 7.12705 10.1022 7.54127 10.0171 7.9395C9.93197 8.33772 9.73429 8.70325 9.44743 8.99278L8.09246 10.3452C9.61126 13.0111 11.8229 15.2185 14.4939 16.7344L15.8489 15.382C16.139 15.0957 16.5052 14.8984 16.9042 14.8135C17.3032 14.7285 17.7182 14.7595 18.1001 14.9028C19.068 15.2633 20.0738 15.5134 21.0981 15.6482C21.6163 15.7212 22.0897 15.9817 22.428 16.3803C22.7664 16.7789 22.9461 17.2877 22.9332 17.8099Z" stroke="white" stroke-opacity="0.9" stroke-width="2" stroke-linecap="round" stroke-linejoin="round"/>
</g>
<defs>
<clipPath id="clip0_34_663">
<rect width="27" height="24" fill="white"/>
</clipPath>
</defs>
</svg>
