<svg width="49" height="48" viewBox="0 0 49 48" fill="none" xmlns="http://www.w3.org/2000/svg">
<path d="M44.6562 0H5.09375C2.76753 0 0.875 1.89253 0.875 4.21875V43.7812C0.875 46.1075 2.76753 48 5.09375 48H44.6562C46.9825 48 48.875 46.1075 48.875 43.7812V4.21875C48.875 1.89253 46.9825 0 44.6562 0ZM3.6875 4.21875C3.6875 3.44334 4.31834 2.8125 5.09375 2.8125H44.6562C45.4317 2.8125 46.0625 3.44334 46.0625 4.21875V6.09375H3.6875V4.21875ZM46.0625 43.7812C46.0625 44.5567 45.4317 45.1875 44.6562 45.1875H5.09375C4.31834 45.1875 3.6875 44.5567 3.6875 43.7812V8.90625H46.0625V43.7812Z" fill="#2B3D4A"/>
<path d="M10.625 35.9062H39.125C39.9017 35.9062 40.5313 35.2766 40.5313 34.5V13.5C40.5313 12.7234 39.9017 12.0938 39.125 12.0938H10.625C9.84842 12.0938 9.2188 12.7234 9.2188 13.5V34.5C9.2188 35.2766 9.84842 35.9062 10.625 35.9062ZM12.0313 33.0938V30.6221L18.893 24.3842L23.9491 28.8083C24.5061 29.2957 25.3459 29.2677 25.8695 28.7442L33.0649 21.5488L37.7188 26.7847V33.0938H12.0313ZM37.7188 14.9062V22.5513L34.1761 18.5657C33.6458 17.9692 32.7101 17.9258 32.1307 18.5056L24.811 25.8253L19.8011 21.4416C19.2633 20.9708 18.458 20.9786 17.9292 21.4593L12.0313 26.8211V14.9062H37.7188ZM22.625 39.0938H19.625C18.8484 39.0938 18.2188 39.7234 18.2188 40.5C18.2188 41.2766 18.8484 41.9062 19.625 41.9062H22.625C23.4017 41.9062 24.0313 41.2766 24.0313 40.5C24.0313 39.7234 23.4017 39.0938 22.625 39.0938ZM31.625 39.0938H28.625C27.8484 39.0938 27.2188 39.7234 27.2188 40.5C27.2188 41.2766 27.8484 41.9062 28.625 41.9062H31.625C32.4017 41.9062 33.0313 41.2766 33.0313 40.5C33.0313 39.7234 32.4017 39.0938 31.625 39.0938ZM12.6307 38.7557L12.125 39.2613L11.6194 38.7556C11.0703 38.2065 10.1798 38.2065 9.63064 38.7556C9.08145 39.3047 9.08145 40.1951 9.63064 40.7443L11.1306 42.2443C11.6798 42.7935 12.5702 42.7935 13.1194 42.2443L14.6194 40.7443C15.1685 40.1952 15.1685 39.3048 14.6194 38.7556C14.0703 38.2065 13.1798 38.2065 12.6307 38.7557Z" fill="#2B3D4A"/>
</svg>
