<svg width="24" height="24" viewBox="0 0 24 24" fill="none" xmlns="http://www.w3.org/2000/svg">
<mask id="path-1-inside-1_36_730" fill="white">
<path d="M7.7512 0H0.8C0.3576 0 0 0.3576 0 0.8V7.2C0 7.6424 0.3576 8 0.8 8C1.2424 8 1.6 7.6424 1.6 7.2V1.6H7.7512C8.1936 1.6 8.5512 1.2424 8.5512 0.8C8.5512 0.3576 8.1936 0 7.7512 0ZM7.7512 22.4H1.6V16.8C1.6 16.3576 1.2424 16 0.8 16C0.3576 16 0 16.3576 0 16.8V23.2C0 23.6424 0.3576 24 0.8 24H7.7512C8.1936 24 8.5512 23.6424 8.5512 23.2C8.5512 22.7576 8.1936 22.4 7.7512 22.4ZM23.2 0H17.7928C17.3504 0 16.9928 0.3576 16.9928 0.8C16.9928 1.2424 17.3504 1.6 17.7928 1.6H22.4V7.2C22.4 7.6424 22.7576 8 23.2 8C23.6424 8 24 7.6424 24 7.2V0.8C24 0.3576 23.6424 0 23.2 0ZM23.2 16C22.7576 16 22.4 16.3576 22.4 16.8V22.4H17.7928C17.3504 22.4 16.9928 22.7576 16.9928 23.2C16.9928 23.6424 17.3504 24 17.7928 24H23.2C23.6424 24 24 23.6424 24 23.2V16.8C24 16.3576 23.6424 16 23.2 16Z"/>
</mask>
<path d="M7.7512 0H0.8C0.3576 0 0 0.3576 0 0.8V7.2C0 7.6424 0.3576 8 0.8 8C1.2424 8 1.6 7.6424 1.6 7.2V1.6H7.7512C8.1936 1.6 8.5512 1.2424 8.5512 0.8C8.5512 0.3576 8.1936 0 7.7512 0ZM7.7512 22.4H1.6V16.8C1.6 16.3576 1.2424 16 0.8 16C0.3576 16 0 16.3576 0 16.8V23.2C0 23.6424 0.3576 24 0.8 24H7.7512C8.1936 24 8.5512 23.6424 8.5512 23.2C8.5512 22.7576 8.1936 22.4 7.7512 22.4ZM23.2 0H17.7928C17.3504 0 16.9928 0.3576 16.9928 0.8C16.9928 1.2424 17.3504 1.6 17.7928 1.6H22.4V7.2C22.4 7.6424 22.7576 8 23.2 8C23.6424 8 24 7.6424 24 7.2V0.8C24 0.3576 23.6424 0 23.2 0ZM23.2 16C22.7576 16 22.4 16.3576 22.4 16.8V22.4H17.7928C17.3504 22.4 16.9928 22.7576 16.9928 23.2C16.9928 23.6424 17.3504 24 17.7928 24H23.2C23.6424 24 24 23.6424 24 23.2V16.8C24 16.3576 23.6424 16 23.2 16Z" fill="#2B2E4A"/>
<path d="M1.6 1.6V-298.4H-298.4V1.6H1.6ZM1.6 22.4H-298.4V322.4H1.6V22.4ZM22.4 1.6H322.4V-298.4H22.4V1.6ZM22.4 22.4V322.4H322.4V22.4H22.4ZM7.7512 -300H0.8V300H7.7512V-300ZM0.8 -300C-165.328 -300 -300 -165.328 -300 0.8H300C300 166.043 166.043 300 0.8 300V-300ZM-300 0.8V7.2H300V0.8H-300ZM-300 7.2C-300 173.328 -165.328 308 0.8 308V-292C166.043 -292 300 -158.043 300 7.2H-300ZM0.8 308C166.928 308 301.6 173.328 301.6 7.2H-298.4C-298.4 -158.043 -164.443 -292 0.8 -292V308ZM301.6 7.2V1.6H-298.4V7.2H301.6ZM1.6 301.6H7.7512V-298.4H1.6V301.6ZM7.7512 301.6C173.879 301.6 308.551 166.928 308.551 0.8H-291.449C-291.449 -164.443 -157.492 -298.4 7.7512 -298.4V301.6ZM308.551 0.8C308.551 -165.328 173.879 -300 7.7512 -300V300C-157.492 300 -291.449 166.043 -291.449 0.8H308.551ZM7.7512 -277.6H1.6V322.4H7.7512V-277.6ZM301.6 22.4V16.8H-298.4V22.4H301.6ZM301.6 16.8C301.6 -149.327 166.928 -284 0.8 -284V316C-164.444 316 -298.4 182.042 -298.4 16.8H301.6ZM0.8 -284C-165.328 -284 -300 -149.327 -300 16.8H300C300 182.042 166.044 316 0.8 316V-284ZM-300 16.8V23.2H300V16.8H-300ZM-300 23.2C-300 189.328 -165.327 324 0.8 324V-276C166.043 -276 300 -142.043 300 23.2H-300ZM0.8 324H7.7512V-276H0.8V324ZM7.7512 324C173.879 324 308.551 189.328 308.551 23.2H-291.449C-291.449 -142.043 -157.492 -276 7.7512 -276V324ZM308.551 23.2C308.551 -142.927 173.88 -277.6 7.7512 -277.6V322.4C-157.493 322.4 -291.449 188.442 -291.449 23.2H308.551ZM23.2 -300H17.7928V300H23.2V-300ZM17.7928 -300C-148.335 -300 -283.007 -165.327 -283.007 0.8H316.993C316.993 166.043 183.036 300 17.7928 300V-300ZM-283.007 0.8C-283.007 166.927 -148.335 301.6 17.7928 301.6V-298.4C183.036 -298.4 316.993 -164.443 316.993 0.8H-283.007ZM17.7928 301.6H22.4V-298.4H17.7928V301.6ZM-277.6 1.6V7.2H322.4V1.6H-277.6ZM-277.6 7.2C-277.6 173.329 -142.927 308 23.2 308V-292C188.442 -292 322.4 -158.044 322.4 7.2H-277.6ZM23.2 308C189.328 308 324 173.328 324 7.2H-276C-276 -158.043 -142.043 -292 23.2 -292V308ZM324 7.2V0.8H-276V7.2H324ZM324 0.8C324 -165.327 189.328 -300 23.2 -300V300C-142.043 300 -276 166.043 -276 0.8H324ZM23.2 -284C-142.928 -284 -277.6 -149.328 -277.6 16.8H322.4C322.4 182.043 188.443 316 23.2 316V-284ZM-277.6 16.8V22.4H322.4V16.8H-277.6ZM22.4 -277.6H17.7928V322.4H22.4V-277.6ZM17.7928 -277.6C-148.336 -277.6 -283.007 -142.927 -283.007 23.2H316.993C316.993 188.442 183.037 322.4 17.7928 322.4V-277.6ZM-283.007 23.2C-283.007 189.328 -148.335 324 17.7928 324V-276C183.036 -276 316.993 -142.043 316.993 23.2H-283.007ZM17.7928 324H23.2V-276H17.7928V324ZM23.2 324C189.328 324 324 189.328 324 23.2H-276C-276 -142.043 -142.043 -276 23.2 -276V324ZM324 23.2V16.8H-276V23.2H324ZM324 16.8C324 -149.327 189.329 -284 23.2 -284V316C-142.044 316 -276 182.042 -276 16.8H324Z" fill="#2B2E4A" mask="url(#path-1-inside-1_36_730)"/>
</svg>
