<svg width="45" height="46" viewBox="0 0 45 46" fill="none" xmlns="http://www.w3.org/2000/svg">
<path d="M28.4201 20.126C28.4201 19.768 28.2778 19.4246 28.0247 19.1714C27.7715 18.9182 27.4281 18.776 27.0701 18.776H12.2201C11.862 18.776 11.5186 18.9182 11.2655 19.1714C11.0123 19.4246 10.8701 19.768 10.8701 20.126C10.8701 20.484 11.0123 20.8274 11.2655 21.0806C11.5186 21.3338 11.862 21.476 12.2201 21.476H27.0701C27.2473 21.476 27.4229 21.4411 27.5867 21.3732C27.7505 21.3054 27.8993 21.206 28.0247 21.0806C28.15 20.9552 28.2495 20.8064 28.3173 20.6426C28.3851 20.4788 28.4201 20.3033 28.4201 20.126ZM12.2171 25.5935C11.859 25.5935 11.5156 25.7357 11.2625 25.9889C11.0093 26.2421 10.8671 26.5855 10.8671 26.9435C10.8671 27.3015 11.0093 27.6449 11.2625 27.8981C11.5156 28.1513 11.859 28.2935 12.2171 28.2935H20.0906C20.4486 28.2935 20.792 28.1513 21.0452 27.8981C21.2983 27.6449 21.4406 27.3015 21.4406 26.9435C21.4406 26.5855 21.2983 26.2421 21.0452 25.9889C20.792 25.7357 20.4486 25.5935 20.0906 25.5935H12.2171Z" fill="#2B3D4A"/>
<path d="M37.315 20.201C36.957 20.201 36.6136 20.3432 36.3604 20.5964C36.1073 20.8496 35.965 21.193 35.965 21.551V32.4695C35.9638 33.4518 35.5731 34.3935 34.8785 35.088C34.184 35.7826 33.2423 36.1733 32.26 36.1745H23.23C22.9372 36.1742 22.6522 36.2695 22.4185 36.446L14.6215 42.3095C14.5549 42.363 14.4737 42.395 14.3886 42.4014C14.3035 42.4078 14.2184 42.3884 14.1445 42.3455C14.0682 42.3091 14.0043 42.2509 13.9608 42.1783C13.9173 42.1058 13.8962 42.022 13.9 41.9375L14.05 37.5725C14.0558 37.3916 14.0253 37.2113 13.9602 37.0424C13.8951 36.8735 13.7968 36.7194 13.671 36.5892C13.5453 36.4589 13.3947 36.3553 13.2282 36.2843C13.0616 36.2134 12.8825 36.1765 12.7015 36.176H6.43002C5.44764 36.1752 4.50572 35.7846 3.81107 35.09C3.11642 34.3953 2.72582 33.4534 2.72502 32.471V14.621C2.72423 13.6369 3.11389 12.6927 3.80849 11.9955C4.5031 11.2984 5.44591 10.9053 6.43002 10.9025H23.065C23.4231 10.9025 23.7664 10.7603 24.0196 10.5071C24.2728 10.2539 24.415 9.91056 24.415 9.55251C24.415 9.19447 24.2728 8.85109 24.0196 8.59792C23.7664 8.34475 23.4231 8.20251 23.065 8.20251H6.43002C4.72993 8.20649 3.10083 8.88463 1.90009 10.0882C0.699351 11.2917 0.0250198 12.9224 0.0250244 14.6225V32.471C0.0270085 34.1693 0.702409 35.7974 1.90311 36.9984C3.1038 38.1994 4.73178 38.8751 6.43002 38.8775H11.3035L11.2015 41.8505C11.1808 42.4442 11.3295 43.0316 11.6302 43.5439C11.9309 44.0563 12.3711 44.4725 12.8995 44.744C13.3494 44.9798 13.8496 45.1033 14.3575 45.104C15.022 45.104 15.6805 44.8895 16.2415 44.471L23.68 38.8775H32.2585C33.9568 38.8751 35.5847 38.1994 36.7854 36.9984C37.9861 35.7974 38.6615 34.1693 38.6635 32.471V21.5525C38.6639 21.3752 38.6293 21.1995 38.5617 21.0355C38.4941 20.8716 38.3949 20.7226 38.2696 20.597C38.1444 20.4715 37.9956 20.3719 37.8318 20.3039C37.668 20.236 37.4924 20.201 37.315 20.201Z" fill="#2B3D4A"/>
<path d="M44.6126 7.34153C44.4948 6.97484 44.285 6.64445 44.0032 6.38187C43.7215 6.11928 43.3771 5.93325 43.0031 5.84153L39.5531 4.98203L37.6691 1.96703C36.8336 0.626028 34.6526 0.629028 33.8186 1.96703L31.9346 4.98203L28.4846 5.84153C27.7211 6.03053 27.1181 6.59153 26.8751 7.34153C26.6321 8.09153 26.7881 8.90003 27.2951 9.50453L29.5811 12.2255L29.3321 15.7715C29.3038 16.1558 29.3745 16.5409 29.5373 16.8901C29.7001 17.2394 29.9496 17.5411 30.2621 17.7665C30.5733 17.9939 30.9374 18.1379 31.3199 18.1849C31.7024 18.2319 32.0906 18.1803 32.4476 18.035L35.7446 16.703L39.0401 18.035C39.7706 18.332 40.5866 18.23 41.2256 17.768C41.8631 17.3045 42.2111 16.559 42.1571 15.7715L41.9081 12.2255L44.1941 9.50303C44.6996 8.90003 44.8571 8.09153 44.6126 7.34153ZM39.4886 10.907C39.2631 11.1757 39.1512 11.5217 39.1766 11.8715L39.4166 15.2765L36.2516 13.997C35.9275 13.8653 35.5647 13.8653 35.2406 13.997L32.0771 15.2765L32.3156 11.8715C32.3392 11.5219 32.2275 11.1766 32.0036 10.907L29.8091 8.29403L33.1211 7.46753C33.4602 7.38283 33.7533 7.16989 33.9386 6.87353L35.7476 3.98003L37.5566 6.87353C37.7426 7.17053 38.0351 7.38353 38.3741 7.46753L41.6861 8.29403L39.4886 10.907Z" fill="#2B3D4A"/>
</svg>
