<svg width="24" height="20" viewBox="0 0 24 20" fill="none" xmlns="http://www.w3.org/2000/svg">
<path d="M23.6129 15H23.2258V11.3636C23.2253 10.8816 23.062 10.4195 22.7717 10.0787C22.4814 9.73785 22.0879 9.54609 21.6774 9.54545V1.81818C21.6769 1.33616 21.5136 0.874069 21.2233 0.533231C20.9331 0.192392 20.5395 0.000631406 20.129 0H3.87097C3.46047 0.000631406 3.06695 0.192392 2.77669 0.533231C2.48642 0.874069 2.32312 1.33616 2.32258 1.81818V9.54545C1.91209 9.54609 1.51856 9.73785 1.2283 10.0787C0.938037 10.4195 0.774731 10.8816 0.774194 11.3636V15H0.387097C0.284432 15 0.185973 15.0479 0.113378 15.1331C0.0407833 15.2184 0 15.334 0 15.4545V17.2727C0 17.3933 0.0407833 17.5089 0.113378 17.5941C0.185973 17.6794 0.284432 17.7273 0.387097 17.7273H0.774194V19.5455C0.774194 19.666 0.814977 19.7816 0.887572 19.8669C0.960166 19.9521 1.05863 20 1.16129 20H2.32258C2.41205 20 2.49876 19.9637 2.56793 19.897C2.63711 19.8304 2.68447 19.7377 2.70194 19.6347L3.0271 17.7273H20.9729L21.2981 19.6347C21.3155 19.7377 21.3629 19.8304 21.4321 19.897C21.5012 19.9637 21.588 20 21.6774 20H22.8387C22.9414 20 23.0398 19.9521 23.1124 19.8669C23.185 19.7816 23.2258 19.666 23.2258 19.5455V17.7273H23.6129C23.7156 17.7273 23.814 17.6794 23.8866 17.5941C23.9592 17.5089 24 17.3933 24 17.2727V15.4545C24 15.334 23.9592 15.2184 23.8866 15.1331C23.814 15.0479 23.7156 15 23.6129 15ZM3.09677 1.81818C3.09704 1.57717 3.1787 1.34613 3.32383 1.17571C3.46896 1.00529 3.66572 0.909407 3.87097 0.909091H20.129C20.3343 0.909407 20.531 1.00529 20.6762 1.17571C20.8213 1.34613 20.903 1.57717 20.9032 1.81818V9.54545H20.129V7.72727C20.1285 7.24525 19.9652 6.78316 19.6749 6.44232C19.3847 6.10148 18.9911 5.90972 18.5806 5.90909H13.9355C13.525 5.90972 13.1315 6.10148 12.8412 6.44232C12.5509 6.78316 12.3876 7.24525 12.3871 7.72727V9.54545H11.6129V7.72727C11.6124 7.24525 11.4491 6.78316 11.1588 6.44232C10.8685 6.10148 10.475 5.90972 10.0645 5.90909H5.41935C5.00886 5.90972 4.61534 6.10148 4.32507 6.44232C4.03481 6.78316 3.87151 7.24525 3.87097 7.72727V9.54545H3.09677V1.81818ZM19.3548 7.72727V9.54545H13.1613V7.72727C13.1616 7.48626 13.2432 7.25522 13.3883 7.0848C13.5335 6.91438 13.7302 6.8185 13.9355 6.81818H18.5806C18.7859 6.8185 18.9827 6.91438 19.1278 7.0848C19.2729 7.25522 19.3546 7.48626 19.3548 7.72727ZM10.8387 7.72727V9.54545H4.64516V7.72727C4.64543 7.48626 4.72708 7.25522 4.87221 7.0848C5.01735 6.91438 5.21411 6.8185 5.41935 6.81818H10.0645C10.2698 6.8185 10.4665 6.91438 10.6117 7.0848C10.7568 7.25522 10.8384 7.48626 10.8387 7.72727ZM1.54839 11.3636C1.54866 11.1226 1.63031 10.8916 1.77544 10.7212C1.92057 10.5507 2.11733 10.4549 2.32258 10.4545H21.6774C21.8827 10.4549 22.0794 10.5507 22.2246 10.7212C22.3697 10.8916 22.4513 11.1226 22.4516 11.3636V15H1.54839V11.3636ZM2.00516 19.0909H1.54839V17.7273H2.23742L2.00516 19.0909ZM22.4516 19.0909H21.9948L21.7626 17.7273H22.4516V19.0909ZM23.2258 16.8182H0.774194V15.9091H23.2258V16.8182Z" fill="#2B2E4A"/>
</svg>
