<svg width="24" height="24" viewBox="0 0 24 24" fill="none" xmlns="http://www.w3.org/2000/svg">
<path d="M5.31978 15.9022C5.30216 15.9022 5.28416 15.901 5.26578 15.8984C4.41144 15.7756 3.58499 15.5051 2.82341 15.0989C2.73783 15.0509 2.67448 14.9712 2.64693 14.877C2.61938 14.7828 2.62982 14.6816 2.67601 14.595C2.7222 14.5084 2.80047 14.4433 2.89405 14.4137C2.98763 14.3841 3.08908 14.3924 3.17666 14.4367C3.86124 14.8023 4.6044 15.0456 5.37266 15.1555C5.46614 15.1695 5.55092 15.2182 5.61006 15.292C5.66919 15.3657 5.69833 15.459 5.69166 15.5533C5.68498 15.6476 5.64298 15.7359 5.57404 15.8006C5.5051 15.8652 5.4143 15.9015 5.31978 15.9022ZM18.6803 15.9022C18.5854 15.9022 18.4941 15.8662 18.4247 15.8015C18.3553 15.7369 18.3129 15.6483 18.3062 15.5537C18.2995 15.459 18.3289 15.3654 18.3885 15.2916C18.4481 15.2178 18.5335 15.1693 18.6274 15.1559C19.3957 15.046 20.1388 14.8027 20.8234 14.437C20.9106 14.3959 21.0103 14.3899 21.1018 14.4203C21.1934 14.4507 21.2697 14.515 21.3151 14.6001C21.3605 14.6852 21.3714 14.7845 21.3457 14.8774C21.3199 14.9703 21.2594 15.0497 21.1767 15.0993C20.4151 15.5055 19.5886 15.776 18.7343 15.8988C18.7164 15.901 18.6983 15.9021 18.6803 15.9022ZM14.7578 12.5358C14.6902 12.536 14.6238 12.5179 14.5656 12.4833C14.5075 12.4488 14.4598 12.3992 14.4276 12.3397C14.3954 12.2803 14.3799 12.2132 14.3828 12.1456C14.3857 12.0781 14.4068 12.0126 14.4439 11.956C14.7038 11.5558 15.0597 11.2271 15.4793 10.9997C15.8988 10.7723 16.3686 10.6536 16.8458 10.6544C16.9452 10.6544 17.0406 10.6939 17.1109 10.7643C17.1813 10.8346 17.2208 10.93 17.2208 11.0294C17.2208 11.1289 17.1813 11.2243 17.1109 11.2946C17.0406 11.3649 16.9452 11.4044 16.8458 11.4044C16.4934 11.4037 16.1465 11.4913 15.8367 11.6592C15.527 11.8271 15.2642 12.07 15.0724 12.3655C15.0384 12.418 14.9917 12.461 14.9368 12.4907C14.8818 12.5205 14.8203 12.536 14.7578 12.5358Z" fill="#103758" fill-opacity="0.66"/>
<path d="M17.6767 11.4045C16.3474 11.4045 15.2246 10.2817 15.2246 8.95273C15.2246 7.62373 16.3474 6.50098 17.6767 6.50098C19.0057 6.50098 20.1285 7.62373 20.1285 8.95273C20.1285 10.2817 19.0057 11.4045 17.6767 11.4045ZM17.6767 7.25098C16.7542 7.25098 15.9746 8.03023 15.9746 8.95273C15.9746 9.87523 16.7542 10.6545 17.6767 10.6545C18.5992 10.6545 19.3785 9.87523 19.3785 8.95273C19.3785 8.03023 18.5992 7.25098 17.6767 7.25098Z" fill="#103758" fill-opacity="0.66"/>
<path d="M21.0001 13.8972C20.9006 13.8972 20.8052 13.8576 20.7349 13.7873C20.6646 13.717 20.6251 13.6216 20.6251 13.5222C20.6244 12.9608 20.4011 12.4227 20.0042 12.0258C19.6073 11.6289 19.0691 11.4056 18.5078 11.4049C18.4084 11.4049 18.313 11.3654 18.2426 11.2951C18.1723 11.2247 18.1328 11.1294 18.1328 11.0299C18.1328 10.9305 18.1723 10.8351 18.2426 10.7647C18.313 10.6944 18.4084 10.6549 18.5078 10.6549C20.0888 10.6549 21.3751 11.9415 21.3751 13.5222C21.3751 13.6216 21.3356 13.717 21.2652 13.7873C21.1949 13.8576 21.0995 13.8972 21.0001 13.8972Z" fill="#103758" fill-opacity="0.66"/>
<path d="M18.5077 11.4044H16.8461C16.7466 11.4044 16.6512 11.3649 16.5809 11.2946C16.5106 11.2243 16.4711 11.1289 16.4711 11.0294C16.4711 10.93 16.5106 10.8346 16.5809 10.7643C16.6512 10.6939 16.7466 10.6544 16.8461 10.6544H18.5077C18.6072 10.6544 18.7025 10.6939 18.7729 10.7643C18.8432 10.8346 18.8827 10.93 18.8827 11.0294C18.8827 11.1289 18.8432 11.2243 18.7729 11.2946C18.7025 11.3649 18.6072 11.4044 18.5077 11.4044ZM21 15.1432C20.9005 15.1432 20.8051 15.1037 20.7348 15.0333C20.6645 14.963 20.625 14.8676 20.625 14.7682V13.522C20.625 13.4226 20.6645 13.3272 20.7348 13.2569C20.8051 13.1866 20.9005 13.147 21 13.147C21.0994 13.147 21.1948 13.1866 21.2651 13.2569C21.3355 13.3272 21.375 13.4226 21.375 13.522V14.7682C21.375 14.8676 21.3355 14.963 21.2651 15.0333C21.1948 15.1037 21.0994 15.1432 21 15.1432ZM7.56934 15.4199C7.46988 15.4199 7.3745 15.3804 7.30417 15.3101C7.23385 15.2398 7.19434 15.1444 7.19434 15.0449C7.19434 13.0057 8.85334 11.347 10.8922 11.347C10.9917 11.347 11.0871 11.3866 11.1574 11.4569C11.2277 11.5272 11.2672 11.6226 11.2672 11.722C11.2672 11.8215 11.2277 11.9169 11.1574 11.9872C11.0871 12.0575 10.9917 12.097 10.8922 12.097C9.26659 12.097 7.94434 13.4193 7.94434 15.0449C7.94434 15.1444 7.90483 15.2398 7.8345 15.3101C7.76418 15.3804 7.66879 15.4199 7.56934 15.4199Z" fill="#103758" fill-opacity="0.66"/>
<path d="M13.1078 12.097H10.8923C10.7928 12.097 10.6975 12.0575 10.6271 11.9872C10.5568 11.9169 10.5173 11.8215 10.5173 11.722C10.5173 11.6226 10.5568 11.5272 10.6271 11.4569C10.6975 11.3866 10.7928 11.347 10.8923 11.347H13.1078C13.2073 11.347 13.3026 11.3866 13.373 11.4569C13.4433 11.5272 13.4828 11.6226 13.4828 11.722C13.4828 11.8215 13.4433 11.9169 13.373 11.9872C13.3026 12.0575 13.2073 12.097 13.1078 12.097ZM9.2423 12.5358C9.17982 12.5359 9.11832 12.5203 9.06338 12.4906C9.00843 12.4609 8.96178 12.4179 8.92767 12.3655C8.73582 12.07 8.47303 11.8273 8.16326 11.6594C7.8535 11.4915 7.50663 11.4038 7.1543 11.4044C7.05484 11.4044 6.95946 11.3649 6.88913 11.2946C6.81881 11.2243 6.7793 11.1289 6.7793 11.0294C6.7793 10.93 6.81881 10.8346 6.88913 10.7643C6.95946 10.6939 7.05484 10.6544 7.1543 10.6544C7.63149 10.6536 8.10131 10.7722 8.52086 10.9996C8.94041 11.227 9.29634 11.5558 9.55617 11.956C9.59304 12.0126 9.61395 12.0781 9.61669 12.1455C9.61944 12.213 9.60392 12.28 9.57177 12.3393C9.53963 12.3987 9.49205 12.4483 9.43406 12.4829C9.37607 12.5175 9.30982 12.5357 9.2423 12.5358ZM7.56942 17.0815C7.46997 17.0815 7.37458 17.042 7.30426 16.9717C7.23393 16.9014 7.19442 16.806 7.19442 16.7065V15.0449C7.19442 14.9455 7.23393 14.8501 7.30426 14.7798C7.37458 14.7094 7.46997 14.6699 7.56942 14.6699C7.66888 14.6699 7.76426 14.7094 7.83459 14.7798C7.90491 14.8501 7.94442 14.9455 7.94442 15.0449V16.7065C7.94442 16.806 7.90491 16.9014 7.83459 16.9717C7.76426 17.042 7.66888 17.0815 7.56942 17.0815Z" fill="#103758" fill-opacity="0.66"/>
<path d="M11.9998 12.0971C10.2955 12.0971 8.85547 10.6571 8.85547 8.95272C8.85547 7.24835 10.2955 5.80835 11.9998 5.80835C13.7042 5.80835 15.1442 7.24835 15.1442 8.95272C15.1442 10.6571 13.7042 12.0971 11.9998 12.0971ZM11.9998 6.55835C10.702 6.55835 9.60547 7.65485 9.60547 8.95272C9.60547 10.2506 10.702 11.3471 11.9998 11.3471C13.2977 11.3471 14.3942 10.2506 14.3942 8.95272C14.3942 7.65485 13.2977 6.55835 11.9998 6.55835Z" fill="#103758" fill-opacity="0.66"/>
<path d="M16.4303 15.4199C16.3308 15.4199 16.2355 15.3804 16.1651 15.3101C16.0948 15.2398 16.0553 15.1444 16.0553 15.0449C16.0553 13.4193 14.733 12.097 13.1074 12.097C13.008 12.097 12.9126 12.0575 12.8423 11.9872C12.7719 11.9169 12.7324 11.8215 12.7324 11.722C12.7324 11.6226 12.7719 11.5272 12.8423 11.4569C12.9126 11.3866 13.008 11.347 13.1074 11.347C15.1467 11.347 16.8053 13.006 16.8053 15.0449C16.8053 15.1444 16.7658 15.2398 16.6955 15.3101C16.6251 15.3804 16.5298 15.4199 16.4303 15.4199Z" fill="#103758" fill-opacity="0.66"/>
<path d="M16.4307 17.0815C16.3312 17.0815 16.2358 17.042 16.1655 16.9717C16.0952 16.9014 16.0557 16.806 16.0557 16.7065V15.0449C16.0557 14.9455 16.0952 14.8501 16.1655 14.7798C16.2358 14.7094 16.3312 14.6699 16.4307 14.6699C16.5301 14.6699 16.6255 14.7094 16.6958 14.7798C16.7662 14.8501 16.8057 14.9455 16.8057 15.0449V16.7065C16.8057 16.806 16.7662 16.9014 16.6958 16.9717C16.6255 17.042 16.5301 17.0815 16.4307 17.0815Z" fill="#103758" fill-opacity="0.66"/>
<path d="M12 18.1916C10.4175 18.1916 8.83534 17.8069 7.39272 17.0377C7.31 16.9882 7.24949 16.9087 7.22372 16.8158C7.19795 16.7229 7.20889 16.6236 7.25427 16.5385C7.29965 16.4535 7.376 16.3891 7.46753 16.3587C7.55905 16.3284 7.65874 16.3344 7.74597 16.3755C9.05483 17.0751 10.516 17.4411 12.0002 17.4411C13.4843 17.4411 14.9455 17.0751 16.2543 16.3755C16.3416 16.3344 16.4413 16.3284 16.5328 16.3587C16.6243 16.3891 16.7007 16.4535 16.746 16.5385C16.7914 16.6236 16.8024 16.7229 16.7766 16.8158C16.7508 16.9087 16.6903 16.9882 16.6076 17.0377C15.1897 17.7947 13.6073 18.191 12 18.1916ZM6.32284 11.4045C4.99384 11.4045 3.87109 10.2817 3.87109 8.95273C3.87109 7.62373 4.99384 6.50098 6.32284 6.50098C7.65184 6.50098 8.77459 7.62373 8.77459 8.95273C8.77459 10.2817 7.65184 11.4045 6.32284 11.4045ZM6.32284 7.25098C5.40034 7.25098 4.62109 8.03023 4.62109 8.95273C4.62109 9.87523 5.40034 10.6545 6.32284 10.6545C7.24534 10.6545 8.02459 9.87523 8.02459 8.95273C8.02459 8.03023 7.24534 7.25098 6.32284 7.25098Z" fill="#103758" fill-opacity="0.66"/>
<path d="M3 13.8972C2.90054 13.8972 2.80516 13.8576 2.73484 13.7873C2.66451 13.717 2.625 13.6216 2.625 13.5222C2.625 11.9412 3.91162 10.6549 5.49225 10.6549C5.59171 10.6549 5.68709 10.6944 5.75741 10.7647C5.82774 10.8351 5.86725 10.9305 5.86725 11.0299C5.86725 11.1294 5.82774 11.2247 5.75741 11.2951C5.68709 11.3654 5.59171 11.4049 5.49225 11.4049C4.93087 11.4054 4.39263 11.6286 3.99568 12.0256C3.59872 12.4225 3.3755 12.9608 3.375 13.5222C3.375 13.6216 3.33549 13.717 3.26516 13.7873C3.19484 13.8576 3.09946 13.8972 3 13.8972Z" fill="#103758" fill-opacity="0.66"/>
<path d="M7.15387 11.4044H5.49225C5.39279 11.4044 5.29741 11.3649 5.22708 11.2946C5.15676 11.2243 5.11725 11.1289 5.11725 11.0294C5.11725 10.93 5.15676 10.8346 5.22708 10.7643C5.29741 10.6939 5.39279 10.6544 5.49225 10.6544H7.15387C7.25333 10.6544 7.34871 10.6939 7.41904 10.7643C7.48937 10.8346 7.52887 10.93 7.52887 11.0294C7.52887 11.1289 7.48937 11.2243 7.41904 11.2946C7.34871 11.3649 7.25333 11.4044 7.15387 11.4044ZM3 15.1432C2.90054 15.1432 2.80516 15.1037 2.73484 15.0333C2.66451 14.963 2.625 14.8676 2.625 14.7682V13.522C2.625 13.4226 2.66451 13.3272 2.73484 13.2569C2.80516 13.1866 2.90054 13.147 3 13.147C3.09946 13.147 3.19484 13.1866 3.26516 13.2569C3.33549 13.3272 3.375 13.4226 3.375 13.522V14.7682C3.375 14.8676 3.33549 14.963 3.26516 15.0333C3.19484 15.1037 3.09946 15.1432 3 15.1432Z" fill="#103758" fill-opacity="0.66"/>
</svg>
