<svg width="21" height="20" viewBox="0 0 21 20" fill="none" xmlns="http://www.w3.org/2000/svg">
<path d="M13.0188 8.80249C13.0188 8.65331 12.9596 8.51023 12.8541 8.40474C12.7486 8.29925 12.6055 8.23999 12.4563 8.23999H6.26883C6.11964 8.23999 5.97657 8.29925 5.87108 8.40474C5.76559 8.51023 5.70633 8.65331 5.70633 8.80249C5.70633 8.95167 5.76559 9.09475 5.87108 9.20024C5.97657 9.30573 6.11964 9.36499 6.26883 9.36499H12.4563C12.5302 9.36499 12.6033 9.35044 12.6716 9.32217C12.7398 9.2939 12.8018 9.25247 12.8541 9.20024C12.9063 9.148 12.9477 9.086 12.976 9.01775C13.0043 8.9495 13.0188 8.87636 13.0188 8.80249ZM6.26758 11.0806C6.11839 11.0806 5.97532 11.1399 5.86983 11.2454C5.76434 11.3509 5.70508 11.4939 5.70508 11.6431C5.70508 11.7923 5.76434 11.9354 5.86983 12.0409C5.97532 12.1464 6.11839 12.2056 6.26758 12.2056H9.5482C9.69739 12.2056 9.84046 12.1464 9.94595 12.0409C10.0514 11.9354 10.1107 11.7923 10.1107 11.6431C10.1107 11.4939 10.0514 11.3509 9.94595 11.2454C9.84046 11.1399 9.69739 11.0806 9.5482 11.0806H6.26758Z" fill="black" fill-opacity="0.66"/>
<path d="M16.725 8.83376C16.5758 8.83376 16.4327 8.89302 16.3273 8.99851C16.2218 9.104 16.1625 9.24707 16.1625 9.39626V13.9456C16.162 14.3549 15.9992 14.7473 15.7098 15.0367C15.4204 15.3261 15.028 15.4889 14.6187 15.4894H10.8562C10.7342 15.4892 10.6155 15.529 10.5181 15.6025L7.26937 18.0456C7.24163 18.0679 7.2078 18.0812 7.17232 18.0839C7.13685 18.0866 7.1014 18.0785 7.07062 18.0606C7.03882 18.0454 7.0122 18.0212 6.99408 17.991C6.97596 17.9607 6.96715 17.9258 6.96875 17.8906L7.03125 16.0719C7.03367 15.9965 7.02095 15.9214 6.99382 15.851C6.9667 15.7806 6.92572 15.7164 6.87333 15.6622C6.82094 15.6079 6.75819 15.5647 6.6888 15.5351C6.61942 15.5056 6.5448 15.4902 6.46937 15.49H3.85625C3.44692 15.4897 3.05446 15.3269 2.76502 15.0375C2.47558 14.748 2.31283 14.3556 2.3125 13.9463V6.50876C2.31217 6.09871 2.47453 5.70528 2.76395 5.4148C3.05337 5.12433 3.4462 4.96054 3.85625 4.95938H10.7875C10.9367 4.95938 11.0798 4.90012 11.1852 4.79463C11.2907 4.68914 11.35 4.54607 11.35 4.39688C11.35 4.2477 11.2907 4.10462 11.1852 3.99913C11.0798 3.89364 10.9367 3.83438 10.7875 3.83438H3.85625C3.14788 3.83604 2.46909 4.1186 1.96878 4.62008C1.46847 5.12156 1.1875 5.80101 1.1875 6.50938V13.9463C1.18833 14.6539 1.46974 15.3322 1.97003 15.8327C2.47032 16.3331 3.14865 16.6146 3.85625 16.6156H5.88688L5.84437 17.8544C5.83576 18.1018 5.8977 18.3465 6.02298 18.56C6.14826 18.7735 6.3317 18.9469 6.55187 19.06C6.73932 19.1583 6.94774 19.2097 7.15937 19.21C7.43625 19.21 7.71062 19.1206 7.94438 18.9463L11.0438 16.6156H14.6181C15.3257 16.6146 16.004 16.3331 16.5043 15.8327C17.0046 15.3322 17.286 14.6539 17.2869 13.9463V9.39688C17.287 9.32299 17.2726 9.24979 17.2445 9.18148C17.2163 9.11316 17.1749 9.05107 17.1227 8.99877C17.0706 8.94646 17.0086 8.90496 16.9403 8.87665C16.8721 8.84833 16.7989 8.83376 16.725 8.83376Z" fill="black" fill-opacity="0.66"/>
<path d="M19.7656 3.47563C19.7165 3.32284 19.6291 3.18518 19.5117 3.07577C19.3943 2.96636 19.2508 2.88885 19.095 2.85063L17.6575 2.4925L16.8725 1.23625C16.5243 0.677501 15.6156 0.678751 15.2681 1.23625L14.4831 2.4925L13.0456 2.85063C12.7275 2.92938 12.4762 3.16313 12.375 3.47563C12.2737 3.78813 12.3387 4.125 12.55 4.37688L13.5025 5.51063L13.3987 6.98813C13.3869 7.14824 13.4164 7.3087 13.4842 7.45422C13.552 7.59973 13.656 7.72544 13.7862 7.81938C13.9159 7.9141 14.0676 7.97411 14.227 7.99369C14.3864 8.01327 14.5481 7.99178 14.6968 7.93125L16.0706 7.37625L17.4437 7.93125C17.7481 8.055 18.0881 8.0125 18.3543 7.82C18.62 7.62688 18.765 7.31625 18.7425 6.98813L18.6387 5.51063L19.5912 4.37625C19.8018 4.125 19.8675 3.78813 19.7656 3.47563ZM17.6306 4.96125C17.5366 5.0732 17.49 5.21736 17.5006 5.36313L17.6006 6.78188L16.2818 6.24875C16.1468 6.19386 15.9956 6.19386 15.8606 6.24875L14.5425 6.78188L14.6418 5.36313C14.6517 5.21745 14.6051 5.07356 14.5118 4.96125L13.5975 3.8725L14.9775 3.52813C15.1188 3.49283 15.2409 3.40411 15.3181 3.28063L16.0718 2.075L16.8256 3.28063C16.9031 3.40438 17.025 3.49313 17.1662 3.52813L18.5462 3.8725L17.6306 4.96125Z" fill="black" fill-opacity="0.66"/>
</svg>
